# xmcd CD database file
#
# Track frame offsets:
#	183
#	17045
#	29055
#	46025
#	65215
#	88193
#	93875
#	108583
#	128008
#	146720
#	158750
#	175495
#
# Disc length: 2607 seconds
#
# Revision: 0
# Processed by: cddbd v1.5.1PL0 Copyright (c) Steve Scherf et al.
# Submitted via: Feurio! 1.68 - http://www.feurio.com
#
DISCID=a50a2d0c
DTITLE=Clifford Scott - Mr. Honky Tonk is back in town
DYEAR=1992
DGENRE=
TTITLE0=Mr. Honky Tonk's back in town
TTITLE1=Kidney stew
TTITLE2=Cherry red
TTITLE3=Nobody knows you when you're down and out
TTITLE4=Summertime
TTITLE5=Let's go to the snack bar
TTITLE6=Early in the morning
TTITLE7=Tuff
TTITLE8=Paralysed
TTITLE9=Anything but work
TTITLE10=Motherless child
TTITLE11=Honky tonk
EXTD=
EXTT0=(W. Indian)
EXTT1=(Blackmoon/Vinson)
EXTT2=(P. Johonson/J.Turner)
EXTT3=(J.Cox)
EXTT4=(D.Heyward/J.Gerschwin)
EXTT5=(W.Indian/R.Trapps/L.Reed)
EXTT6=(Hickman/Jordan/Bartley)
EXTT7=(Cannon)
EXTT8=(Blackwell/Presley)
EXTT9=(R.Charles)
EXTT10=(trad., arr. Scott/Indian)
EXTT11=(Scott/Butler/Dogget/Sheppard)
PLAYORDER=
